<svg width="365" height="158" viewBox="0 0 365 158" fill="none" xmlns="http://www.w3.org/2000/svg">
<path d="M0 0H365V153C365 155.761 362.761 158 360 158H5C2.23858 158 0 155.761 0 153V0Z" fill="#F5F5F5"/>
<path d="M96.7052 66.3408H99.3579C99.3195 64.0077 97.4019 62.3969 94.4871 62.3969C91.6171 62.3969 89.5141 63.9821 89.5269 66.3599C89.5205 68.2903 90.882 69.3962 93.0937 69.9267L94.5191 70.2846C95.9445 70.6298 96.7371 71.0389 96.7435 71.921C96.7371 72.8798 95.8295 73.5318 94.4232 73.5318C92.985 73.5318 91.9495 72.867 91.86 71.5567H89.1817C89.252 74.3883 91.2783 75.8521 94.4552 75.8521C97.6512 75.8521 99.5305 74.3244 99.5368 71.9274C99.5305 69.7477 97.8877 68.5908 95.6121 68.0794L94.436 67.7981C93.2982 67.5361 92.3458 67.1142 92.365 66.1746C92.365 65.3308 93.1128 64.7108 94.468 64.7108C95.7911 64.7108 96.6029 65.3116 96.7052 66.3408ZM107.644 71.4864C107.65 72.8031 106.749 73.4935 105.771 73.4935C104.742 73.4935 104.077 72.7712 104.07 71.6142V65.8486H101.347V72.1C101.354 74.3947 102.696 75.7946 104.671 75.7946C106.148 75.7946 107.209 75.0339 107.65 73.8834H107.752V75.6667H110.367V65.8486H107.644V71.4864ZM115.344 75.8521C116.795 75.8521 117.735 75.2193 118.214 74.3052H118.291V75.6667H120.873V69.0446C120.873 66.7051 118.892 65.7207 116.706 65.7207C114.354 65.7207 112.807 66.8457 112.43 68.6355L114.948 68.84C115.133 68.1881 115.715 67.7087 116.693 67.7087C117.62 67.7087 118.15 68.1753 118.15 68.9807V69.019C118.15 69.6518 117.479 69.7349 115.773 69.9011C113.829 70.0801 112.084 70.7321 112.084 72.9246C112.084 74.8677 113.472 75.8521 115.344 75.8521ZM116.124 73.9729C115.287 73.9729 114.686 73.5829 114.686 72.8351C114.686 72.068 115.319 71.6909 116.278 71.5567C116.872 71.4736 117.844 71.3329 118.17 71.1156V72.1575C118.17 73.1866 117.32 73.9729 116.124 73.9729ZM135.321 68.6483C135.078 66.8393 133.621 65.7207 131.141 65.7207C128.629 65.7207 126.973 66.8841 126.979 68.7761C126.973 70.2463 127.9 71.1987 129.818 71.5822L131.518 71.921C132.374 72.0936 132.764 72.4068 132.777 72.899C132.764 73.4807 132.131 73.8962 131.179 73.8962C130.207 73.8962 129.562 73.4807 129.396 72.6817L126.717 72.8223C126.973 74.7015 128.571 75.8585 131.173 75.8585C133.717 75.8585 135.538 74.5609 135.545 72.6241C135.538 71.2051 134.612 70.355 132.707 69.965L130.93 69.6071C130.016 69.4089 129.677 69.0957 129.683 68.6227C129.677 68.0346 130.342 67.6511 131.185 67.6511C132.131 67.6511 132.694 68.1689 132.828 68.8017L135.321 68.6483ZM140.059 75.8521C141.51 75.8521 142.45 75.2193 142.929 74.3052H143.006V75.6667H145.588V69.0446C145.588 66.7051 143.607 65.7207 141.421 65.7207C139.068 65.7207 137.522 66.8457 137.144 68.6355L139.663 68.84C139.848 68.1881 140.43 67.7087 141.408 67.7087C142.335 67.7087 142.865 68.1753 142.865 68.9807V69.019C142.865 69.6518 142.194 69.7349 140.487 69.9011C138.544 70.0801 136.799 70.7321 136.799 72.9246C136.799 74.8677 138.186 75.8521 140.059 75.8521ZM140.839 73.9729C140.002 73.9729 139.401 73.5829 139.401 72.8351C139.401 72.068 140.034 71.6909 140.992 71.5567C141.587 71.4736 142.559 71.3329 142.884 71.1156V72.1575C142.884 73.1866 142.034 73.9729 140.839 73.9729ZM152.137 75.8585C154.751 75.8585 156.394 74.3244 156.522 72.068H153.952C153.793 73.1163 153.102 73.7044 152.169 73.7044C150.897 73.7044 150.072 72.6369 150.072 70.7577C150.072 68.904 150.903 67.8429 152.169 67.8429C153.166 67.8429 153.805 68.5013 153.952 69.4792H156.522C156.407 67.2101 154.687 65.7207 152.124 65.7207C149.146 65.7207 147.305 67.7854 147.305 70.796C147.305 73.7811 149.114 75.8585 152.137 75.8585ZM162.701 75.8585C165.68 75.8585 167.534 73.8194 167.534 70.796C167.534 67.7534 165.68 65.7207 162.701 65.7207C159.723 65.7207 157.869 67.7534 157.869 70.796C157.869 73.8194 159.723 75.8585 162.701 75.8585ZM162.714 73.7491C161.34 73.7491 160.637 72.4899 160.637 70.7768C160.637 69.0638 161.34 67.7981 162.714 67.7981C164.063 67.7981 164.766 69.0638 164.766 70.7768C164.766 72.4899 164.063 73.7491 162.714 73.7491ZM172.027 62.5758H169.304V75.6667H172.027V62.5758ZM177.008 75.8521C178.459 75.8521 179.399 75.2193 179.878 74.3052H179.955V75.6667H182.538V69.0446C182.538 66.7051 180.556 65.7207 178.37 65.7207C176.018 65.7207 174.471 66.8457 174.094 68.6355L176.612 68.84C176.797 68.1881 177.379 67.7087 178.357 67.7087C179.284 67.7087 179.815 68.1753 179.815 68.9807V69.019C179.815 69.6518 179.143 69.7349 177.437 69.9011C175.494 70.0801 173.748 70.7321 173.748 72.9246C173.748 74.8677 175.136 75.8521 177.008 75.8521ZM177.788 73.9729C176.951 73.9729 176.35 73.5829 176.35 72.8351C176.35 72.068 176.983 71.6909 177.942 71.5567C178.536 71.4736 179.508 71.3329 179.834 71.1156V72.1575C179.834 73.1866 178.984 73.9729 177.788 73.9729ZM193.291 75.8585C195.72 75.8585 197.356 74.676 197.739 72.8542L195.221 72.6881C194.946 73.4359 194.243 73.8258 193.335 73.8258C191.974 73.8258 191.111 72.9246 191.111 71.4608V71.4544H197.797V70.7065C197.797 67.3699 195.777 65.7207 193.182 65.7207C190.293 65.7207 188.42 67.7726 188.42 70.8024C188.42 73.9153 190.267 75.8585 193.291 75.8585ZM191.111 69.7669C191.168 68.6483 192.019 67.7534 193.227 67.7534C194.409 67.7534 195.227 68.5971 195.234 69.7669H191.111ZM207.743 68.6483C207.5 66.8393 206.043 65.7207 203.563 65.7207C201.051 65.7207 199.395 66.8841 199.401 68.7761C199.395 70.2463 200.322 71.1987 202.239 71.5822L203.94 71.921C204.796 72.0936 205.186 72.4068 205.199 72.899C205.186 73.4807 204.553 73.8962 203.601 73.8962C202.629 73.8962 201.984 73.4807 201.818 72.6817L199.139 72.8223C199.395 74.7015 200.993 75.8585 203.595 75.8585C206.139 75.8585 207.96 74.5609 207.967 72.6241C207.96 71.2051 207.033 70.355 205.129 69.965L203.352 69.6071C202.438 69.4089 202.099 69.0957 202.105 68.6227C202.099 68.0346 202.764 67.6511 203.607 67.6511C204.553 67.6511 205.116 68.1689 205.25 68.8017L207.743 68.6483ZM214.904 65.8486H213.056V63.4963H210.333V65.8486H208.991V67.894H210.333V73.0077C210.321 74.9317 211.631 75.8841 213.606 75.801C214.309 75.7754 214.808 75.6348 215.083 75.5453L214.654 73.519C214.52 73.5446 214.233 73.6085 213.977 73.6085C213.434 73.6085 213.056 73.404 213.056 72.6497V67.894H214.904V65.8486ZM219.477 75.8521C220.928 75.8521 221.868 75.2193 222.347 74.3052H222.424V75.6667H225.006V69.0446C225.006 66.7051 223.025 65.7207 220.839 65.7207C218.486 65.7207 216.94 66.8457 216.562 68.6355L219.081 68.84C219.266 68.1881 219.848 67.7087 220.826 67.7087C221.753 67.7087 222.283 68.1753 222.283 68.9807V69.019C222.283 69.6518 221.612 69.7349 219.905 69.9011C217.962 70.0801 216.217 70.7321 216.217 72.9246C216.217 74.8677 217.604 75.8521 219.477 75.8521ZM220.257 73.9729C219.42 73.9729 218.819 73.5829 218.819 72.8351C218.819 72.068 219.452 71.6909 220.41 71.5567C221.005 71.4736 221.976 71.3329 222.302 71.1156V72.1575C222.302 73.1866 221.452 73.9729 220.257 73.9729ZM219.963 64.5829H221.887L223.837 61.6746H221.318L219.963 64.5829ZM240.438 65.8486H237.555L235.523 72.8734H235.421L233.381 65.8486H230.505L233.938 75.6667H237.006L240.438 65.8486ZM244.35 75.8521C245.801 75.8521 246.741 75.2193 247.22 74.3052H247.297V75.6667H249.879V69.0446C249.879 66.7051 247.898 65.7207 245.712 65.7207C243.359 65.7207 241.813 66.8457 241.435 68.6355L243.954 68.84C244.139 68.1881 244.721 67.7087 245.699 67.7087C246.626 67.7087 247.156 68.1753 247.156 68.9807V69.019C247.156 69.6518 246.485 69.7349 244.778 69.9011C242.835 70.0801 241.09 70.7321 241.09 72.9246C241.09 74.8677 242.477 75.8521 244.35 75.8521ZM245.13 73.9729C244.293 73.9729 243.692 73.5829 243.692 72.8351C243.692 72.068 244.325 71.6909 245.283 71.5567C245.878 71.4736 246.85 71.3329 247.176 71.1156V72.1575C247.176 73.1866 246.325 73.9729 245.13 73.9729ZM251.941 75.6667H260.193V73.4935H255.514V73.4231L260.027 67.6192V65.8486H252.107V68.0219H256.748V68.0922L251.941 74.0432V75.6667ZM262.275 75.6667H264.998V65.8486H262.275V75.6667ZM263.643 64.5829C264.455 64.5829 265.12 63.9629 265.12 63.2023C265.12 62.448 264.455 61.828 263.643 61.828C262.838 61.828 262.173 62.448 262.173 63.2023C262.173 63.9629 262.838 64.5829 263.643 64.5829ZM269.979 75.8521C271.43 75.8521 272.37 75.2193 272.849 74.3052H272.926V75.6667H275.508V69.0446C275.508 66.7051 273.527 65.7207 271.341 65.7207C268.988 65.7207 267.441 66.8457 267.064 68.6355L269.583 68.84C269.768 68.1881 270.35 67.7087 271.328 67.7087C272.255 67.7087 272.785 68.1753 272.785 68.9807V69.019C272.785 69.6518 272.114 69.7349 270.407 69.9011C268.464 70.0801 266.719 70.7321 266.719 72.9246C266.719 74.8677 268.106 75.8521 269.979 75.8521ZM270.759 73.9729C269.922 73.9729 269.321 73.5829 269.321 72.8351C269.321 72.068 269.954 71.6909 270.912 71.5567C271.507 71.4736 272.478 71.3329 272.804 71.1156V72.1575C272.804 73.1866 271.954 73.9729 270.759 73.9729Z" fill="#333333"/>
<path d="M137.536 107L138.56 104.116H142.677L143.701 107H144.994L141.255 96.8182H139.982L136.244 107H137.536ZM138.948 103.023L140.579 98.429H140.658L142.289 103.023H138.948ZM149.304 107.159C150.776 107.159 151.273 106.244 151.531 105.827H151.671V107H152.804V96.8182H151.631V100.577H151.531C151.273 100.179 150.815 99.2642 149.324 99.2642C147.395 99.2642 146.063 100.795 146.063 103.202C146.063 105.628 147.395 107.159 149.304 107.159ZM149.463 106.105C147.992 106.105 147.236 104.812 147.236 103.182C147.236 101.571 147.972 100.318 149.463 100.318C150.895 100.318 151.651 101.472 151.651 103.182C151.651 104.912 150.875 106.105 149.463 106.105ZM155.116 107H156.289V99.3636H155.116V107ZM155.712 98.0909C156.17 98.0909 156.548 97.733 156.548 97.2955C156.548 96.858 156.17 96.5 155.712 96.5C155.255 96.5 154.877 96.858 154.877 97.2955C154.877 97.733 155.255 98.0909 155.712 98.0909ZM161.54 107.159C163.231 107.159 164.344 106.125 164.543 104.773H163.37C163.151 105.608 162.455 106.105 161.54 106.105C160.148 106.105 159.253 104.952 159.253 103.182C159.253 101.452 160.168 100.318 161.54 100.318C162.574 100.318 163.191 100.955 163.37 101.651H164.543C164.344 100.219 163.131 99.2642 161.521 99.2642C159.452 99.2642 158.08 100.895 158.08 103.222C158.08 105.509 159.393 107.159 161.54 107.159ZM166.258 107H167.432V99.3636H166.258V107ZM166.855 98.0909C167.312 98.0909 167.69 97.733 167.69 97.2955C167.69 96.858 167.312 96.5 166.855 96.5C166.398 96.5 166.02 96.858 166.02 97.2955C166.02 97.733 166.398 98.0909 166.855 98.0909ZM172.683 107.159C174.751 107.159 176.143 105.588 176.143 103.222C176.143 100.835 174.751 99.2642 172.683 99.2642C170.615 99.2642 169.223 100.835 169.223 103.222C169.223 105.588 170.615 107.159 172.683 107.159ZM172.683 106.105C171.112 106.105 170.396 104.753 170.396 103.222C170.396 101.69 171.112 100.318 172.683 100.318C174.254 100.318 174.97 101.69 174.97 103.222C174.97 104.753 174.254 106.105 172.683 106.105ZM179.108 102.406C179.108 101.074 179.933 100.318 181.056 100.318C182.145 100.318 182.806 101.029 182.806 102.227V107H183.98V102.148C183.98 100.199 182.941 99.2642 181.394 99.2642C180.241 99.2642 179.525 99.7812 179.167 100.557H179.068V99.3636H177.934V107H179.108V102.406ZM189.325 107.159C190.877 107.159 192.01 106.384 192.368 105.23L191.234 104.912C190.936 105.707 190.245 106.105 189.325 106.105C187.948 106.105 186.999 105.215 186.944 103.58H192.487V103.082C192.487 100.239 190.797 99.2642 189.206 99.2642C187.138 99.2642 185.766 100.895 185.766 103.241C185.766 105.588 187.118 107.159 189.325 107.159ZM186.944 102.565C187.024 101.377 187.864 100.318 189.206 100.318C190.479 100.318 191.294 101.273 191.294 102.565H186.944ZM198.21 107H199.383V99.3636H198.21V107ZM198.806 98.0909C199.264 98.0909 199.641 97.733 199.641 97.2955C199.641 96.858 199.264 96.5 198.806 96.5C198.349 96.5 197.971 96.858 197.971 97.2955C197.971 97.733 198.349 98.0909 198.806 98.0909ZM204.853 99.3636H203.222V97.5341H202.049V99.3636H200.896V100.358H202.049V105.131C202.049 106.463 203.123 107.099 204.117 107.099C204.555 107.099 204.833 107.02 204.992 106.96L204.753 105.906C204.654 105.926 204.495 105.966 204.236 105.966C203.719 105.966 203.222 105.807 203.222 104.812V100.358H204.853V99.3636ZM209.737 107.159C211.289 107.159 212.422 106.384 212.78 105.23L211.647 104.912C211.348 105.707 210.657 106.105 209.737 106.105C208.36 106.105 207.411 105.215 207.356 103.58H212.899V103.082C212.899 100.239 211.209 99.2642 209.618 99.2642C207.55 99.2642 206.178 100.895 206.178 103.241C206.178 105.588 207.53 107.159 209.737 107.159ZM207.356 102.565C207.436 101.377 208.276 100.318 209.618 100.318C210.891 100.318 211.706 101.273 211.706 102.565H207.356ZM215.858 102.406C215.858 101.074 216.683 100.318 217.806 100.318C218.895 100.318 219.556 101.029 219.556 102.227V107H220.73V102.148C220.73 100.199 219.691 99.2642 218.144 99.2642C216.991 99.2642 216.275 99.7812 215.917 100.557H215.818V99.3636H214.684V107H215.858V102.406ZM228.283 101.074C227.915 99.9901 227.09 99.2642 225.578 99.2642C223.967 99.2642 222.774 100.179 222.774 101.472C222.774 102.526 223.401 103.232 224.803 103.56L226.075 103.858C226.846 104.037 227.209 104.405 227.209 104.932C227.209 105.588 226.513 106.125 225.419 106.125C224.46 106.125 223.858 105.712 223.649 104.892L222.536 105.17C222.809 106.468 223.878 107.159 225.439 107.159C227.214 107.159 228.422 106.19 228.422 104.872C228.422 103.808 227.756 103.137 226.394 102.804L225.26 102.526C224.355 102.302 223.948 101.999 223.948 101.412C223.948 100.756 224.644 100.278 225.578 100.278C226.602 100.278 227.025 100.845 227.229 101.372L228.283 101.074Z" fill="#828282"/>
</svg>
